<?xml version="1.0" standalone="no"?>
<!DOCTYPE svg PUBLIC "-//W3C//DTD SVG 20010904//EN"
 "http://www.w3.org/TR/2001/REC-SVG-20010904/DTD/svg10.dtd">
<svg version="1.0" xmlns="http://www.w3.org/2000/svg"
 width="512.000000pt" height="512.000000pt" viewBox="0 0 512.000000 512.000000"
 preserveAspectRatio="xMidYMid meet">
<metadata>
Created by potrace 1.14, written by Peter Selinger 2001-2017
</metadata>
<g transform="translate(0.000000,512.000000) scale(0.100000,-0.100000)"
fill="#000000" stroke="none">
<path d="M836 5085 c-5 -24 -12 -35 -22 -33 -18 4 -56 -66 -94 -169 -14 -37
-30 -44 -30 -13 0 13 -5 18 -15 14 -8 -4 -12 -10 -9 -15 3 -5 -2 -9 -11 -9 -9
0 -15 -6 -12 -12 2 -7 -2 -21 -11 -30 -8 -10 -15 -28 -16 -40 -1 -30 -36 -38
-36 -9 0 12 -4 21 -10 21 -13 0 -13 -13 2 -45 6 -14 17 -25 24 -25 7 0 10 -8
7 -18 -3 -12 14 -37 51 -76 30 -32 56 -61 58 -65 3 -6 50 -38 109 -74 74 -44
223 -61 430 -46 90 6 139 15 170 29 24 11 56 20 70 20 15 0 61 11 103 25 43
14 82 22 88 19 7 -4 8 -2 4 4 -4 7 -1 12 9 12 9 0 28 9 42 20 14 11 33 20 42
20 9 0 27 9 41 20 35 27 63 26 30 -1 -70 -58 -117 -97 -149 -124 -72 -61 -199
-135 -233 -135 -13 0 -36 -9 -53 -20 -16 -11 -61 -29 -100 -41 -38 -11 -83
-26 -100 -32 -19 -8 -96 -12 -210 -12 -162 0 -187 3 -245 23 -36 13 -81 34
-101 48 -38 26 -49 29 -49 14 0 -6 12 -15 26 -20 15 -6 38 -19 53 -29 14 -11
45 -24 68 -30 25 -7 61 -29 90 -56 26 -25 52 -45 56 -45 5 0 21 -8 35 -18 15
-10 68 -30 117 -46 50 -15 110 -34 135 -41 25 -8 72 -17 105 -22 l60 -7 -70
-11 c-135 -21 -346 1 -395 41 -8 6 -26 15 -38 19 -32 9 -117 61 -169 102 -23
18 -46 33 -52 33 -5 0 -29 20 -52 45 -23 25 -44 43 -46 41 -7 -7 92 -146 104
-146 7 0 13 -4 13 -9 0 -8 20 -36 81 -115 25 -32 42 -89 64 -214 8 -46 21 -98
29 -115 8 -18 27 -63 42 -102 33 -86 101 -208 140 -254 16 -19 54 -58 84 -87
30 -29 52 -55 50 -58 -3 -3 -28 10 -55 29 -28 19 -55 34 -62 35 -6 0 -18 8
-25 18 -7 10 -26 26 -43 36 -37 22 -130 129 -152 174 -8 17 -19 32 -24 32 -5
0 -18 18 -29 40 -11 22 -24 40 -28 40 -4 0 -21 30 -36 68 -16 37 -37 76 -46
87 -10 11 -23 38 -30 60 -7 22 -19 54 -25 70 -25 59 -33 101 -39 189 -4 50 -8
92 -11 94 -2 2 -9 1 -16 -3 -11 -7 -8 -193 5 -370 8 -113 85 -375 121 -415 8
-9 15 -22 15 -29 0 -7 15 -33 32 -59 18 -26 33 -49 33 -52 0 -3 14 -25 32 -48
35 -49 50 -42 28 12 -18 42 -18 46 -5 46 5 0 16 -13 25 -29 24 -47 152 -146
262 -201 l102 -52 7 -44 c6 -42 4 -66 -12 -128 -5 -20 -2 -26 10 -26 9 0 21
-9 28 -20 7 -11 19 -20 27 -20 9 0 11 -7 7 -22 -3 -13 -6 -26 -6 -30 0 -5 -7
-8 -15 -8 -8 0 -15 -4 -15 -10 0 -20 16 -9 67 46 29 31 60 76 69 100 9 24 21
44 26 44 5 0 4 9 -3 21 -6 11 -12 42 -14 67 -2 26 -8 48 -14 50 -6 2 -11 11
-11 20 0 11 8 5 23 -15 12 -18 26 -33 31 -33 5 0 15 -8 22 -17 7 -10 15 -15
18 -12 3 3 -14 27 -39 54 -24 27 -49 59 -56 72 -13 25 -14 23 28 168 8 28 23
79 33 115 10 36 27 90 40 120 12 30 30 80 41 110 11 30 28 73 39 95 11 22 22
57 25 78 7 41 12 45 31 20 10 -13 13 -14 14 -4 0 7 14 29 30 48 16 18 30 40
30 47 0 7 9 21 20 31 11 10 20 23 20 29 1 13 77 96 90 96 4 0 11 -6 14 -12 3
-7 4 14 2 47 -3 62 -36 155 -43 123 -3 -9 1 -27 8 -39 10 -20 9 -25 -12 -38
-13 -9 -37 -28 -53 -43 -17 -16 -35 -28 -41 -28 -6 0 -22 -10 -34 -21 -30 -28
-40 -13 -30 49 4 26 5 50 3 53 -12 20 22 68 68 98 l51 34 19 -23 c10 -12 18
-17 18 -11 0 18 -34 91 -42 91 -5 0 -8 6 -8 13 0 8 -11 24 -25 37 -36 34 -32
64 13 91 20 13 47 33 59 46 12 13 26 23 30 23 14 0 42 -109 52 -202 12 -106 5
-303 -14 -361 l-13 -42 -2 35 c-1 34 -2 34 -11 10 -6 -14 -26 -42 -47 -62 -33
-35 -34 -38 -14 -38 13 0 22 -6 22 -15 0 -8 5 -15 10 -15 6 0 10 -7 10 -15 0
-22 14 -18 25 7 6 13 19 24 30 26 11 2 29 14 40 27 26 30 58 36 63 11 5 -23
49 -64 78 -72 15 -4 45 10 101 45 79 51 101 77 150 181 21 47 53 153 47 161
-3 5 -22 2 -42 -7 -20 -9 -48 -19 -62 -24 -40 -12 -199 -90 -205 -100 -13 -20
-136 -73 -135 -57 1 10 31 100 37 110 4 7 8 21 9 32 5 68 29 179 43 196 12 15
43 24 126 38 121 19 138 17 190 -31 17 -16 33 -28 36 -28 3 0 18 -11 32 -24
15 -14 33 -29 40 -33 21 -14 49 -150 54 -271 4 -85 1 -144 -11 -217 -21 -121
-37 -188 -46 -195 -4 -3 -15 -22 -23 -43 l-16 -37 23 17 c13 10 43 51 67 92
24 40 45 68 47 61 5 -15 -15 -110 -34 -163 -8 -20 -14 -40 -14 -44 0 -11 37
42 65 94 15 29 32 50 37 46 14 -8 1 -100 -27 -193 -22 -75 -104 -232 -128
-247 -7 -5 -27 -27 -45 -50 -32 -42 -33 -43 -10 -43 13 0 40 8 61 19 36 19
175 120 209 153 9 9 30 24 46 32 16 8 32 22 35 31 4 8 13 15 21 15 8 0 19 6
23 13 4 7 33 30 63 52 30 22 101 85 158 140 57 55 107 102 113 103 16 6 9 -68
-16 -188 -26 -126 -74 -305 -96 -360 -28 -71 -103 -202 -131 -230 -16 -16 -36
-50 -45 -76 -8 -25 -22 -48 -29 -51 -38 -14 -3 -21 110 -21 125 0 157 -8 183
-41 11 -14 12 -14 13 2 0 9 2 17 5 17 22 0 253 -93 360 -145 169 -81 221 -102
311 -125 41 -11 89 -26 107 -34 64 -28 203 -72 261 -83 10 -2 37 -17 59 -33
23 -17 45 -30 51 -30 5 0 24 -11 42 -25 18 -14 35 -25 38 -25 7 0 166 -107
189 -127 9 -9 25 -21 35 -27 67 -41 83 -53 87 -67 6 -18 84 -84 91 -77 2 3
-14 24 -35 48 -21 24 -37 49 -34 56 2 6 0 15 -6 19 -20 11 -12 33 9 28 11 -3
20 -14 20 -24 0 -11 5 -19 10 -19 6 0 10 9 10 21 0 11 4 17 10 14 11 -7 57 22
52 33 -2 4 -10 11 -18 15 -8 4 -14 15 -14 22 0 8 -4 15 -10 15 -5 0 -10 7 -10
16 0 10 -6 14 -15 10 -8 -3 -15 -3 -15 0 0 11 82 99 93 99 6 0 11 10 12 22 2
30 7 34 47 39 19 3 42 16 56 32 17 21 24 24 31 13 5 -8 11 -9 15 -3 3 6 29 9
56 8 28 -2 50 1 50 6 0 4 7 8 15 8 8 0 15 -5 15 -11 0 -23 25 -1 30 27 5 26 9
29 40 26 19 -1 37 -7 38 -12 2 -6 8 -10 13 -10 5 0 9 34 9 76 l0 76 -40 -4
c-22 -2 -40 0 -40 4 0 5 -4 8 -10 8 -5 0 -10 -7 -10 -15 0 -8 -9 -15 -20 -15
-11 0 -19 -5 -17 -11 2 -13 -76 -39 -118 -39 -39 1 -86 37 -64 51 11 7 11 9
-3 9 -27 0 -22 20 5 20 57 1 98 9 113 24 15 16 17 16 29 -1 7 -9 11 -23 8 -30
-3 -7 -1 -13 4 -13 16 0 23 13 14 24 -5 6 -13 31 -18 56 l-9 45 -69 6 c-78 7
-92 4 -74 -18 11 -12 9 -13 -13 -8 -15 4 -29 2 -33 -5 -5 -7 -12 -2 -21 15
-18 35 -18 49 1 41 10 -4 15 1 15 14 0 15 7 20 25 20 14 0 25 5 25 10 0 6 5
10 10 10 6 0 10 -8 10 -18 0 -22 39 -47 52 -34 6 6 6 12 -1 16 -6 4 -11 11
-11 16 0 6 9 2 19 -7 11 -9 17 -21 14 -26 -3 -5 7 -6 25 -2 29 6 32 4 47 -31
9 -21 14 -43 11 -50 -5 -12 57 -12 87 1 20 8 24 71 5 78 -7 2 -10 8 -6 12 5 5
19 3 33 -3 l26 -12 -2 290 c-1 259 -3 289 -18 293 -14 4 -14 5 2 6 14 1 17 11
17 61 0 33 -3 60 -7 61 -31 3 -59 11 -70 21 -11 9 -17 8 -24 -3 -5 -8 -9 -17
-9 -20 0 -3 -11 -4 -25 -1 -17 3 -25 11 -25 25 0 31 -7 17 -14 -26 -5 -34 -4
-38 13 -32 35 11 47 -3 47 -54 -1 -27 -5 -47 -9 -44 -5 3 -7 24 -5 47 2 31 -1
41 -12 41 -9 0 -16 -11 -18 -27 -4 -38 -18 -35 -32 6 -9 28 -16 35 -45 38
l-35 4 26 -27 c17 -18 24 -34 20 -45 -6 -14 -11 -12 -38 17 l-31 34 7 -33 c4
-23 1 -38 -8 -48 -8 -7 -16 -19 -18 -26 -4 -10 -8 -10 -21 1 -15 12 -17 11
-17 -9 0 -16 -5 -21 -17 -18 -16 4 -18 -2 -16 -54 2 -45 -2 -60 -13 -65 -9 -3
-20 -1 -27 6 -8 8 -7 11 5 11 12 0 16 9 15 35 -1 23 -4 31 -12 25 -5 -5 -24
-10 -40 -12 -25 -2 -31 1 -33 21 -3 20 -8 22 -34 17 -17 -3 -34 -6 -39 -6 -5
0 -9 -5 -9 -10 0 -6 12 -9 28 -8 23 3 27 -1 30 -24 2 -16 8 -28 13 -28 5 0 9
-16 9 -36 0 -39 16 -77 30 -69 14 9 22 -13 11 -32 -6 -10 -11 -12 -11 -5 0 17
-20 15 -20 -2 0 -8 6 -16 13 -19 10 -4 10 -7 0 -18 -11 -11 -13 -10 -13 3 0
19 -28 44 -38 33 -4 -4 -1 -10 6 -12 6 -3 12 -11 12 -19 0 -8 4 -14 9 -14 5 0
16 -11 25 -25 16 -24 16 -25 -10 -15 -15 6 -35 8 -46 4 -10 -3 -24 -2 -31 3
-7 5 -31 15 -54 23 -24 7 -43 17 -43 22 0 10 47 11 52 1 2 -5 20 -16 41 -26
28 -12 38 -14 35 -5 -3 7 -13 18 -24 23 -16 8 -18 15 -10 37 5 15 6 31 1 35
-4 5 -10 2 -12 -4 -3 -8 -22 -13 -47 -13 -28 0 -49 -7 -64 -20 -26 -24 -44
-26 -40 -4 2 10 -3 19 -9 21 -7 3 -13 -2 -13 -11 0 -9 -4 -16 -10 -16 -5 0
-10 3 -10 8 0 10 -57 41 -64 34 -10 -9 -7 -24 4 -17 6 3 10 2 10 -3 0 -6 -87
-10 -215 -11 l-214 -2 -16 30 c-8 17 -15 41 -15 56 0 14 -4 25 -10 25 -5 0
-10 9 -10 19 0 19 1 19 43 -2 23 -12 46 -26 50 -32 6 -6 10 -5 14 3 4 10 23
11 81 5 95 -8 98 -8 146 1 36 7 38 6 33 -13 -3 -12 -1 -21 5 -21 5 0 8 19 6
42 -3 40 -5 43 -43 52 -22 5 -42 12 -45 16 -3 4 -16 11 -30 15 -50 14 -105 48
-128 76 l-24 29 50 -4 c56 -4 135 8 202 31 25 8 50 16 55 18 30 8 75 28 75 34
0 3 14 12 30 19 35 16 92 70 85 81 -2 5 -49 11 -104 14 -95 7 -192 26 -226 44
-11 7 -1 16 42 38 32 17 78 46 103 65 59 45 259 250 266 272 3 10 10 18 15 18
5 0 9 7 9 15 0 8 4 15 8 15 7 0 42 63 42 75 0 3 -9 5 -20 5 -13 0 -20 -7 -20
-20 0 -23 -45 -97 -75 -121 -43 -37 -266 -28 -373 13 -29 11 -67 25 -85 29
-26 7 -24 8 13 3 95 -11 245 -4 335 17 134 31 168 43 173 58 4 10 0 12 -14 6
-44 -18 -221 -54 -266 -55 -25 0 -11 28 23 45 15 8 52 40 81 71 29 31 71 75
93 98 36 37 57 67 118 171 38 63 77 159 69 167 -4 4 -22 -7 -39 -25 -17 -18
-48 -40 -69 -49 -87 -36 -152 -58 -204 -69 -66 -14 -193 -5 -223 16 -12 8 -33
15 -47 15 -48 0 -55 17 -14 30 46 15 102 52 164 108 67 62 39 63 -32 1 -35
-30 -76 -61 -93 -68 -56 -25 -113 -39 -139 -34 -44 9 -29 -13 27 -37 93 -40
179 -60 260 -60 115 0 95 -14 -79 -55 -120 -28 -506 -5 -619 38 -79 30 -105
41 -105 48 0 3 31 9 69 13 80 8 152 32 266 87 76 37 175 112 163 124 -3 3 -41
10 -84 15 -131 15 -314 68 -368 106 -11 8 -27 14 -34 14 -15 0 -151 91 -152
101 0 3 39 14 88 23 81 16 205 59 226 78 6 4 16 8 23 8 7 0 39 18 70 40 32 22
65 40 74 40 9 0 19 9 22 20 6 24 0 25 -22 6 -9 -8 -52 -33 -96 -56 -44 -23
-89 -47 -100 -53 -11 -6 -38 -17 -60 -23 -115 -34 -155 -43 -210 -47 -49 -4
-66 0 -95 18 -38 24 -85 66 -91 81 -2 5 -23 27 -47 49 -76 71 -46 12 36 -71
84 -85 88 -88 148 -127 86 -57 103 -83 27 -40 -27 14 -57 31 -68 37 -11 6 -48
28 -83 50 -34 21 -66 36 -70 32 -27 -27 270 -188 398 -216 19 -4 58 -16 85
-27 28 -11 77 -26 110 -34 l60 -14 -75 -5 c-165 -12 -396 14 -505 58 -56 22
-175 92 -175 103 0 5 -7 9 -15 9 -22 0 -19 -28 9 -85 48 -101 82 -238 94 -380
9 -104 4 -225 -8 -205 -5 8 -8 -2 -8 -26 0 -66 -16 -130 -55 -214 -11 -25 -22
-51 -23 -58 -1 -7 -14 -33 -29 -58 -18 -31 -31 -44 -42 -40 -8 3 -17 6 -19 6
-3 0 2 13 11 30 8 16 15 38 15 50 0 11 4 20 9 20 4 0 6 22 3 50 -3 30 0 55 7
64 14 16 19 317 7 384 -11 62 -32 54 -41 -15 -4 -32 -11 -63 -16 -70 -6 -6
-15 -41 -20 -78 -6 -37 -22 -91 -35 -121 -13 -30 -24 -61 -24 -69 0 -8 -6 -18
-14 -22 -7 -4 -26 -35 -40 -67 -28 -61 -95 -168 -108 -174 -5 -2 -8 -10 -8
-17 0 -8 -4 -17 -10 -20 -11 -7 -2 54 11 71 5 6 8 26 8 45 0 19 4 88 10 154
15 165 13 278 -5 425 -20 163 -27 200 -39 203 -6 1 -11 -56 -13 -153 -1 -89
-8 -181 -16 -215 -8 -33 -17 -81 -21 -107 -3 -27 -10 -48 -16 -48 -5 0 -9 5
-9 11 0 8 -4 8 -14 0 -8 -7 -16 -37 -19 -69 -6 -81 -28 -195 -39 -207 -7 -6
-8 2 -3 23 18 85 23 155 19 257 -6 185 -32 301 -99 440 -13 28 -33 70 -44 95
-23 52 -48 94 -75 126 -10 13 -24 32 -30 42 -6 11 -24 36 -39 56 -28 35 -29
56 -2 56 8 0 53 18 100 40 47 22 89 40 93 40 4 1 25 19 47 41 46 48 47 48 -90
9 -170 -47 -265 -67 -265 -53 0 8 22 26 70 58 92 61 206 175 176 175 -3 0 -27
-21 -54 -47 -62 -59 -130 -112 -180 -138 -20 -11 -38 -23 -40 -27 -5 -11 -62
-36 -97 -41 -16 -3 -55 -13 -85 -22 -30 -9 -93 -20 -140 -25 -115 -11 -361 5
-441 29 -35 10 -76 22 -92 25 -15 4 -36 15 -47 26 -44 44 -18 -11 46 -97 36
-48 70 -96 75 -105 5 -10 20 -29 33 -43 22 -23 67 -107 79 -146 8 -26 -5 -35
-68 -46 -70 -13 -285 -17 -300 -6 -13 11 -30 38 -58 98 -82 171 -93 220 -83
383 3 64 9 132 12 150 4 19 2 32 -4 32 -5 0 -13 -16 -16 -35z m1302 -337 c15
-17 36 -45 47 -62 10 -17 24 -38 30 -47 49 -77 106 -204 108 -246 1 -11 5 -19
8 -17 3 2 11 -8 17 -21 14 -31 8 -31 -27 -2 -16 12 -45 36 -67 52 -21 17 -54
45 -73 63 -19 17 -38 32 -42 32 -5 0 -18 8 -29 18 -37 31 -117 76 -172 95 -30
10 -21 43 17 66 36 21 46 41 21 41 -7 0 -19 -7 -26 -15 -7 -8 -17 -15 -22 -15
-6 0 -25 -7 -44 -16 -22 -11 -45 -14 -66 -10 -18 4 -48 9 -65 13 -18 3 -33 9
-33 13 0 4 49 15 109 24 60 10 142 28 183 41 95 30 95 30 126 -7z m-752 -48
c38 -5 106 -10 151 -10 78 0 84 -2 118 -31 57 -50 61 -65 24 -84 -43 -23 -118
-45 -151 -45 -16 0 -37 9 -48 20 -11 11 -22 20 -24 20 -3 0 -22 15 -42 34 -21
19 -61 49 -91 68 -56 35 -69 54 -29 44 13 -3 54 -10 92 -16z m627 -229 c23
-15 51 -31 62 -35 11 -3 31 -15 45 -26 l25 -20 -110 3 -110 2 -3 39 c-2 21 -1
44 2 52 9 22 44 16 89 -15z m-373 -159 c0 -14 -48 -54 -58 -48 -10 6 -14 95
-5 110 6 9 63 -47 63 -62z m-182 -84 c6 -13 13 -34 15 -48 3 -14 13 -44 21
-68 37 -98 29 -317 -14 -401 l-17 -34 -7 104 c-6 101 -18 141 -32 106 -3 -9
-1 -61 5 -115 8 -69 9 -112 2 -143 -6 -24 -11 -61 -11 -82 0 -20 -13 -65 -30
-100 l-30 -62 0 72 c0 99 -41 258 -86 333 -8 14 -21 39 -29 55 -20 45 -61 85
-88 85 -12 0 -27 4 -32 9 -6 5 -26 14 -45 19 -28 8 -15 10 70 9 112 -1 151 4
202 26 18 8 47 20 65 27 35 13 60 37 50 47 -4 3 -69 5 -146 4 -77 -1 -148 2
-158 7 -37 20 -69 31 -108 38 -37 7 -33 8 43 15 103 10 166 28 262 78 92 47
84 46 98 19z m748 -224 c-8 -65 -19 -76 -27 -29 -7 41 3 75 23 75 7 0 9 -15 4
-46z m-1267 -78 c28 -11 77 -16 141 -16 l98 0 41 -79 c46 -89 94 -211 83 -211
-4 0 -23 13 -42 28 -19 16 -57 41 -85 57 -27 16 -59 36 -70 46 -11 9 -31 20
-45 24 -14 4 -38 18 -53 31 -16 13 -32 24 -37 24 -5 0 -28 18 -52 40 -23 22
-55 48 -70 57 -15 9 -29 22 -32 29 -5 12 28 4 123 -30z m1052 24 c10 -6 19
-18 19 -27 0 -13 9 -15 55 -10 33 3 57 1 61 -5 11 -17 -15 -52 -57 -76 -39
-22 -42 -23 -60 -6 -10 9 -19 22 -19 29 0 6 -11 17 -25 23 -37 17 -35 72 3 81
2 1 12 -4 23 -9z m-156 -100 c3 -5 -1 -10 -10 -10 -9 0 -13 5 -10 10 3 6 8 10
10 10 2 0 7 -4 10 -10z m1055 -217 c0 -5 -5 -15 -10 -23 -8 -12 -10 -11 -10 8
0 12 5 22 10 22 6 0 10 -3 10 -7z m-59 -90 c-17 -26 -31 -42 -31 -36 0 6 11
27 25 47 14 20 26 47 26 59 2 22 2 22 6 -1 3 -14 -7 -40 -26 -69z m-1562 -112
c9 -6 12 -20 9 -40 -4 -30 -3 -32 24 -26 31 7 39 -13 14 -34 -11 -10 -22 -4
-55 28 -36 35 -40 44 -31 61 12 22 18 24 39 11z m-64 -68 c9 -21 25 -48 37
-60 17 -19 19 -25 8 -38 -17 -20 -50 -19 -50 1 0 9 -11 29 -25 46 -27 32 -32
57 -13 76 19 19 27 15 43 -25z m3885 -53 c0 -5 -2 -10 -4 -10 -3 0 -8 5 -11
10 -3 6 -1 10 4 10 6 0 11 -4 11 -10z m-3750 -65 c0 -9 -7 -32 -15 -51 -8 -20
-12 -40 -9 -45 3 -5 0 -8 -8 -7 -7 2 -13 -5 -13 -15 0 -24 -26 -39 -42 -25
-19 16 -16 52 7 73 11 10 20 23 20 28 0 13 40 57 52 57 4 0 8 -7 8 -15z m3592
-30 c-4 -34 -4 -34 -28 -17 -29 21 -30 32 -4 32 11 0 20 5 20 10 0 6 4 10 8
10 4 0 6 -16 4 -35z m133 -42 c-22 -15 -41 -17 -50 -3 -3 6 3 10 14 10 11 0
23 5 26 10 4 6 11 7 17 4 7 -5 4 -12 -7 -21z m-385 -149 c0 -14 -3 -14 -15 -4
-8 7 -15 14 -15 16 0 2 7 4 15 4 8 0 15 -7 15 -16z m37 -116 c-3 -8 -6 -5 -6
6 -1 11 2 17 5 13 3 -3 4 -12 1 -19z m-10 -210 c-3 -8 -6 -5 -6 6 -1 11 2 17
5 13 3 -3 4 -12 1 -19z m283 -28 c0 -5 -4 -10 -10 -10 -5 0 -10 5 -10 10 0 6
5 10 10 10 6 0 10 -4 10 -10z m-204 -357 c-11 -11 -17 4 -9 23 7 18 8 18 11 1
2 -10 1 -21 -2 -24z m-239 -258 c-23 -22 -33 -18 -12 5 10 11 20 18 23 16 2
-3 -3 -12 -11 -21z"/>
<path d="M1919 5081 c-30 -21 -85 -55 -124 -76 l-70 -37 -140 5 c-78 3 -163
12 -192 20 -29 8 -55 11 -58 7 -16 -26 222 -51 430 -45 195 6 288 34 435 130
45 30 50 35 26 30 -17 -3 -41 -15 -55 -25 -14 -10 -44 -25 -66 -34 l-40 -16
27 20 c14 11 37 29 50 40 l23 19 -96 1 c-95 0 -96 0 -150 -39z"/>
<path d="M3063 5105 c35 -13 131 -28 247 -38 40 -4 229 17 255 28 6 2 -26 1
-70 -3 -145 -12 -218 -9 -370 18 -83 14 -109 12 -62 -5z"/>
<path d="M810 5084 c0 -8 5 -12 10 -9 6 3 10 10 10 16 0 5 -4 9 -10 9 -5 0
-10 -7 -10 -16z"/>
<path d="M985 5019 c72 -80 98 -104 103 -89 3 8 0 16 -7 18 -7 2 -29 22 -49
44 -47 51 -91 76 -47 27z"/>
<path d="M4314 4997 c-3 -8 -20 -20 -39 -27 -19 -7 -32 -17 -29 -22 3 -5 10
-6 15 -3 22 14 6 -15 -24 -42 -43 -39 -117 -80 -165 -92 -20 -6 -55 -15 -77
-21 -76 -22 -171 -30 -290 -23 -112 5 -119 5 -106 -11 18 -22 149 -86 175 -86
11 0 27 -6 35 -13 9 -8 51 -26 94 -42 69 -24 92 -27 190 -27 69 1 131 7 161
16 27 8 53 13 58 10 12 -8 38 15 38 33 0 11 -4 13 -12 5 -30 -23 -157 -52
-234 -52 -80 0 -149 13 -159 30 -6 10 54 43 98 54 43 10 228 195 266 266 18
33 27 60 21 60 -6 0 -13 -6 -16 -13z"/>
<path d="M3810 4957 c8 -7 28 -19 44 -26 26 -11 28 -10 17 3 -7 8 -27 19 -44
26 -27 9 -30 9 -17 -3z"/>
<path d="M3890 4919 c0 -14 33 -19 116 -19 60 0 83 3 78 11 -3 6 -18 9 -33 6
-14 -3 -56 -2 -93 2 -38 4 -68 4 -68 0z"/>
<path d="M4276 4574 c-11 -7 -16 -17 -13 -21 4 -4 15 1 24 10 22 21 14 30 -11
11z"/>
<path d="M580 4360 c0 -5 5 -10 11 -10 5 0 7 5 4 10 -3 6 -8 10 -11 10 -2 0
-4 -4 -4 -10z"/>
<path d="M2442 4270 c0 -14 2 -19 5 -12 2 6 2 18 0 25 -3 6 -5 1 -5 -13z"/>
<path d="M3032 4175 c0 -16 2 -22 5 -12 2 9 2 23 0 30 -3 6 -5 -1 -5 -18z"/>
<path d="M357 4120 c-3 -11 -1 -23 4 -26 5 -3 9 6 9 20 0 31 -6 34 -13 6z"/>
<path d="M2942 4045 c0 -16 2 -22 5 -12 2 9 2 23 0 30 -3 6 -5 -1 -5 -18z"/>
<path d="M2937 3928 c-2 -7 -1 -22 4 -33 6 -16 8 -14 8 13 1 33 -4 41 -12 20z"/>
<path d="M2932 3750 c0 -14 2 -19 5 -12 2 6 2 18 0 25 -3 6 -5 1 -5 -13z"/>
<path d="M2890 3693 c-13 -15 -12 -16 4 -10 10 4 20 7 22 7 2 0 4 5 4 10 0 15
-13 12 -30 -7z"/>
<path d="M4240 3260 c0 -5 7 -7 15 -4 8 4 15 8 15 10 0 2 -7 4 -15 4 -8 0 -15
-4 -15 -10z"/>
<path d="M4188 3243 c6 -2 18 -2 25 0 6 3 1 5 -13 5 -14 0 -19 -2 -12 -5z"/>
<path d="M4463 3203 c16 -16 19 -16 28 -3 8 12 9 12 7 -5 -2 -12 4 -21 15 -23
24 -5 22 25 -2 38 -11 5 -30 10 -42 10 -22 0 -22 -1 -6 -17z"/>
<path d="M799 3113 c12 -24 31 -39 31 -25 0 5 -10 17 -21 28 -22 19 -22 19
-10 -3z"/>
<path d="M4287 3123 c-12 -11 -8 -23 8 -23 8 0 15 7 15 15 0 16 -12 20 -23 8z"/>
<path d="M4550 3118 c0 -4 7 -8 15 -8 8 0 15 4 15 8 0 5 -7 9 -15 9 -8 0 -15
-4 -15 -9z"/>
<path d="M4516 3084 c-8 -21 2 -37 20 -30 7 3 16 1 19 -4 4 -6 -5 -10 -19 -10
-15 0 -30 8 -37 21 -8 15 -14 18 -22 10 -8 -8 -8 -14 1 -23 18 -18 15 -28 -8
-28 -15 0 -20 7 -20 24 0 14 -4 28 -10 31 -6 4 -10 -11 -10 -37 l0 -43 59 3
c33 2 68 -1 79 -7 17 -9 23 -6 37 15 23 36 16 69 -15 70 -50 1 -61 4 -55 14 3
6 2 10 -3 10 -6 0 -13 -7 -16 -16z"/>
<path d="M4353 3083 c-7 -2 -13 -12 -13 -20 0 -11 -7 -14 -24 -11 -26 5 -44
-16 -25 -28 6 -3 8 -12 5 -19 -3 -9 2 -13 14 -12 10 1 17 5 14 9 -3 4 3 16 13
27 52 57 56 71 16 54z"/>
<path d="M4247 3024 c-14 -14 -7 -62 9 -68 9 -4 18 -5 19 -4 5 8 -22 78 -28
72z"/>
<path d="M4380 3000 c0 -16 5 -30 10 -30 6 0 10 14 10 30 0 17 -4 30 -10 30
-5 0 -10 -13 -10 -30z"/>
<path d="M4100 2974 c0 -9 7 -14 17 -12 25 5 28 28 4 28 -12 0 -21 -6 -21 -16z"/>
<path d="M4160 2980 c0 -5 5 -10 10 -10 6 0 10 5 10 10 0 6 -4 10 -10 10 -5 0
-10 -4 -10 -10z"/>
<path d="M1381 2656 l2 -134 28 -6 c29 -6 30 -12 4 -81 -11 -30 43 45 56 78 6
15 15 27 20 27 5 0 9 11 9 24 0 13 6 27 13 30 8 3 3 13 -15 28 -16 13 -28 29
-28 34 0 6 -8 18 -18 27 -10 9 -28 37 -41 62 -12 25 -25 45 -27 45 -3 0 -4
-60 -3 -134z"/>
<path d="M1716 2695 c-11 -8 -15 -15 -10 -15 6 0 19 7 30 15 10 8 15 14 9 14
-5 0 -19 -6 -29 -14z"/>
<path d="M4780 2670 c0 -5 7 -10 16 -10 8 0 12 5 9 10 -3 6 -10 10 -16 10 -5
0 -9 -4 -9 -10z"/>
<path d="M2425 2600 c-3 -6 1 -7 9 -4 18 7 21 14 7 14 -6 0 -13 -4 -16 -10z"/>
<path d="M5095 2599 c-11 -16 -1 -19 13 -3 7 8 8 14 3 14 -5 0 -13 -5 -16 -11z"/>
<path d="M3052 2576 c7 -8 15 -12 17 -11 5 6 -10 25 -20 25 -5 0 -4 -6 3 -14z"/>
<path d="M3099 2526 c27 -29 33 -32 25 -13 -2 7 -14 19 -27 26 -21 13 -21 12
2 -13z"/>
<path d="M3142 2470 c7 -11 16 -20 21 -20 4 0 3 9 -3 20 -6 11 -15 20 -20 20
-6 0 -5 -9 2 -20z"/>
<path d="M4920 2480 c0 -5 5 -10 10 -10 6 0 10 5 10 10 0 6 -4 10 -10 10 -5 0
-10 -4 -10 -10z"/>
<path d="M3181 2428 c0 -7 14 -24 32 -38 l32 -25 -23 32 c-27 38 -42 49 -41
31z"/>
<path d="M3240 2351 c0 -5 9 -19 20 -32 l21 -24 -16 33 c-15 31 -25 41 -25 23z"/>
<path d="M1713 2263 c9 -2 25 -2 35 0 9 3 1 5 -18 5 -19 0 -27 -2 -17 -5z"/>
<path d="M1653 2253 c9 -2 23 -2 30 0 6 3 -1 5 -18 5 -16 0 -22 -2 -12 -5z"/>
<path d="M1578 2233 c7 -3 16 -2 19 1 4 3 -2 6 -13 5 -11 0 -14 -3 -6 -6z"/>
<path d="M2088 2214 c4 -22 6 -24 14 -10 9 16 3 36 -11 36 -5 0 -6 -12 -3 -26z"/>
<path d="M1811 2188 c-70 -8 -156 -32 -211 -58 -126 -60 -156 -77 -196 -114
-43 -38 -111 -133 -147 -201 -23 -45 -40 -147 -33 -197 3 -23 9 -66 12 -95 5
-40 13 -58 39 -83 30 -29 31 -33 20 -63 -21 -57 -77 -167 -86 -167 -11 0 -60
47 -73 70 -6 11 -31 53 -56 92 -45 73 -45 73 -47 175 -2 95 15 187 37 203 4 3
11 16 15 30 4 14 19 42 31 62 27 42 30 64 12 71 -8 2 -9 8 -4 13 5 5 11 4 13
-3 9 -25 25 -13 19 15 -3 15 -3 21 0 14 4 -8 28 11 67 51 34 34 82 79 107 100
58 49 40 47 -35 -3 -33 -22 -66 -40 -73 -40 -7 0 -17 -11 -22 -25 -5 -14 -14
-25 -21 -25 -18 0 -79 -69 -73 -83 3 -8 -6 -18 -20 -25 -45 -20 -142 -177
-153 -246 -22 -144 -14 -242 34 -386 23 -71 85 -180 102 -180 4 0 20 -18 37
-40 26 -35 45 -52 104 -89 95 -60 196 -87 358 -97 61 -4 112 -8 112 -10 0 -2
-9 -25 -19 -52 -11 -26 -21 -75 -24 -108 -4 -47 -13 -72 -41 -114 -20 -30 -36
-63 -36 -72 0 -10 -6 -18 -14 -18 -9 0 -17 -15 -21 -40 -4 -22 -15 -50 -24
-62 -21 -27 -61 -110 -61 -125 0 -6 -7 -14 -16 -17 -10 -4 -14 -12 -10 -23 5
-13 -27 -146 -50 -207 -5 -14 5 -16 88 -16 l95 0 10 38 c6 20 23 91 38 157 15
66 38 148 51 182 13 34 24 67 24 73 0 11 22 67 65 165 7 17 19 46 26 65 7 19
24 50 36 69 13 19 23 37 23 42 0 15 51 84 58 79 4 -3 6 -9 4 -15 -2 -5 -5 -73
-7 -150 -3 -77 -7 -158 -9 -180 -5 -34 -3 -31 14 20 11 33 20 71 20 85 0 14 7
35 15 47 16 23 95 338 95 381 0 15 9 72 20 127 11 55 25 127 31 160 5 33 16
92 24 132 8 40 14 87 14 105 -1 18 3 75 10 127 6 52 9 96 6 99 -3 3 -5 0 -5
-7 0 -7 -9 -24 -20 -38 -21 -27 -27 -48 -10 -38 6 3 10 -1 10 -10 0 -9 -7 -15
-16 -13 -10 2 -28 -24 -59 -87 l-44 -90 0 55 c-1 30 6 92 14 137 7 45 19 118
25 162 6 44 19 104 29 134 26 75 36 137 21 137 -6 0 -30 8 -53 19 -52 23 -113
29 -196 19z m91 -1453 c-2 -14 -6 -25 -8 -25 -2 0 -4 11 -4 25 0 14 4 25 9 25
4 0 6 -11 3 -25z m-15 -97 c-3 -8 -6 -5 -6 6 -1 11 2 17 5 13 3 -3 4 -12 1
-19z"/>
<path d="M4690 2100 c0 -5 5 -10 10 -10 6 0 10 5 10 10 0 6 -4 10 -10 10 -5 0
-10 -4 -10 -10z"/>
<path d="M3430 2035 c0 -5 10 -21 21 -35 13 -17 17 -18 10 -5 -17 33 -31 51
-31 40z"/>
<path d="M3480 1945 c0 -17 24 -75 31 -75 5 0 1 17 -8 38 -16 40 -23 50 -23
37z"/>
<path d="M3140 1921 c0 -4 9 -20 20 -34 11 -14 20 -33 20 -42 0 -9 11 -35 24
-58 14 -23 28 -60 31 -82 4 -22 16 -54 26 -71 11 -17 19 -38 19 -46 0 -7 9
-31 20 -53 11 -22 20 -48 20 -58 0 -29 169 -377 232 -478 9 -13 18 -36 22 -50
3 -14 23 -46 44 -70 49 -57 164 -235 193 -299 15 -34 2 -171 -22 -232 -22 -57
-26 -215 -7 -297 l11 -51 664 0 663 0 0 241 0 242 -74 -6 c-65 -6 -75 -4 -91
13 -10 11 -26 22 -36 25 -19 7 -180 112 -189 124 -12 17 -99 70 -150 91 -30
13 -61 28 -68 33 -7 5 -15 7 -18 4 -4 -3 31 -23 77 -45 46 -21 98 -53 116 -70
17 -18 34 -32 38 -32 3 0 21 -11 39 -25 18 -14 36 -25 40 -25 9 0 138 -91 134
-95 -2 -2 -68 -15 -148 -30 -175 -32 -316 -61 -391 -80 -30 -8 -86 -19 -124
-25 -38 -6 -83 -17 -100 -24 -31 -14 -181 -61 -226 -72 -15 -3 -30 -1 -33 5
-9 13 10 187 26 256 23 92 91 181 238 309 32 28 35 28 83 17 66 -15 73 -7 7
10 l-50 13 6 35 c4 20 11 46 15 59 5 13 9 44 9 70 1 26 5 67 10 92 20 92 40
216 39 245 l0 30 -10 -25 c-6 -14 -17 -54 -25 -90 -29 -127 -109 -254 -226
-360 -50 -45 -178 -200 -178 -216 0 -3 -7 -12 -15 -20 -8 -8 -19 -23 -24 -32
-33 -59 -20 76 19 197 22 70 24 85 11 77 -5 -3 -12 4 -16 17 -9 29 -13 16 -22
-68 -9 -78 -22 -88 -53 -41 -10 17 -49 60 -85 98 -72 73 -117 133 -114 151 1
7 -1 21 -5 32 -18 46 -25 73 -36 125 -11 57 -74 252 -91 282 -5 10 -9 25 -9
33 0 25 -62 157 -102 218 -47 69 -108 137 -124 137 -6 0 -17 7 -24 15 -14 16
-30 20 -30 6z"/>
<path d="M4650 1841 c0 -5 7 -14 15 -21 16 -14 18 -10 9 14 -6 17 -24 22 -24
7z"/>
<path d="M3530 1821 c0 -6 4 -13 10 -16 6 -3 7 1 4 9 -7 18 -14 21 -14 7z"/>
<path d="M4696 1788 c5 -9 30 -40 56 -70 26 -29 74 -88 108 -130 33 -43 65
-78 70 -78 6 0 10 -7 10 -17 0 -14 31 -52 125 -155 14 -15 25 -31 25 -36 0 -5
7 -15 15 -22 12 -10 15 -9 15 7 0 11 -27 48 -59 82 -32 34 -71 81 -87 104 -15
23 -41 56 -56 72 -16 17 -52 59 -80 95 -57 71 -155 175 -142 148z"/>
<path d="M3576 1705 c4 -11 14 -29 22 -40 13 -19 14 -19 7 5 -4 14 -14 32 -22
40 -12 13 -13 13 -7 -5z"/>
<path d="M3620 1618 c0 -8 9 -23 19 -32 19 -17 19 -17 14 3 -7 27 -33 50 -33
29z"/>
<path d="M4322 1570 c0 -14 2 -19 5 -12 2 6 2 18 0 25 -3 6 -5 1 -5 -13z"/>
<path d="M4312 1510 c0 -14 2 -19 5 -12 2 6 2 18 0 25 -3 6 -5 1 -5 -13z"/>
<path d="M3712 1469 c14 -28 98 -115 98 -102 -1 4 -26 35 -56 68 -30 33 -49
48 -42 34z"/>
<path d="M3826 1325 c4 -11 10 -58 13 -105 4 -56 8 -74 12 -54 8 46 -5 152
-20 166 -12 11 -12 10 -5 -7z"/>
<path d="M3836 1042 c-4 -41 -5 -76 -3 -79 7 -7 20 99 15 128 -2 13 -7 -9 -12
-49z"/>
<path d="M3866 1025 c-3 -9 -6 -26 -5 -38 1 -14 4 -9 9 13 9 37 7 52 -4 25z"/>
<path d="M4375 803 c11 -3 24 -9 30 -14 5 -5 16 -9 25 -9 9 1 6 6 -10 15 -14
8 -34 14 -45 13 l-20 0 20 -5z"/>
<path d="M2665 571 c-27 -5 -66 -14 -85 -21 -31 -11 -337 -160 -400 -195 -49
-27 -146 -64 -195 -75 -64 -14 -129 -36 -155 -52 -17 -11 -22 -10 -30 1 -7 12
-10 10 -14 -10 -3 -13 -16 -68 -29 -121 l-23 -98 437 0 437 0 30 25 c17 14 33
25 37 25 5 0 23 11 41 25 18 14 40 25 49 25 9 0 33 9 55 20 75 38 128 22 321
-98 36 -22 41 -22 324 -20 l288 3 -44 44 c-24 24 -60 54 -79 66 -19 13 -62 48
-95 80 -33 31 -81 70 -107 87 -27 17 -48 35 -48 39 0 4 -10 11 -22 15 -13 3
-81 42 -152 86 -197 121 -260 146 -387 152 -57 2 -126 1 -154 -3z"/>
<path d="M1830 364 c0 -8 5 -12 10 -9 6 3 10 10 10 16 0 5 -4 9 -10 9 -5 0
-10 -7 -10 -16z"/>
<path d="M3636 285 c10 -8 24 -14 29 -14 6 0 1 6 -9 14 -11 8 -24 15 -30 15
-5 0 -1 -7 10 -15z"/>
<path d="M3730 185 c0 -15 18 -40 24 -34 3 3 -1 14 -9 25 -8 10 -14 15 -15 9z"/>
</g>
</svg>
